<?xml version="1.0" encoding="utf-8"?>
<!-- Generator: Adobe Illustrator 25.2.1, SVG Export Plug-In . SVG Version: 6.00 Build 0)  -->
<svg version="1.1" id="Layer_1" xmlns="http://www.w3.org/2000/svg" xmlns:xlink="http://www.w3.org/1999/xlink" x="0px" y="0px"
	 viewBox="0 0 595.28 841.89" style="enable-background:new 0 0 595.28 841.89;" xml:space="preserve">
<style type="text/css">
	.st0{fill:#BE1E2D;}
</style>
<path class="st0" d="M113.58,358.17h261.78l11.9,6.21c0,0-21.15,85.74-42.31,91.96s-104.45,3.73-104.45,3.73l-22.48-22.37h-60.82
	l95.19,171.49l6.1,6.37c5.51,5.76,12.57,10.11,20.51,12.17c16.25,4.21,33.53,3.09,48.96-3.09c9.85-3.94,17.7-11.32,22.27-20.42v0
	l126.93-283.33c0,0,9.26-36.04-29.09-43.49c-38.34-7.46-319.96,0-319.96,0S84.49,294.8,113.58,358.17z"/>
<path class="st0" d="M133.41,379.3c0,0,10.58,37.28,18.51,38.52c7.93,1.24,146.76-2.49,146.76-2.49v-37.28L133.41,379.3z"/>
</svg>
